<?xml version="1.0" encoding="UTF-8"?>
<svg version="1.1" viewBox="0 0 175 71" xmlns="http://www.w3.org/2000/svg">
<title>Globo.com</title>
<desc>Created with Sketch.</desc>
<g fill="none" fill-rule="evenodd">
<g transform="translate(-58 -80)" fill="#0669DE">
<g transform="translate(58 80)">
<path d="m30.95 16.432c-2.8096 0-4.4226 1.5897-5.0532 4.3315-1.8946-3.1735-5.8245-4.7632-9.2647-4.7632-10.174-0.002977-16.632 9.7437-16.632 20.208 0 10.324 4.9828 19.925 15.579 19.925 4.6338 0 8.071-1.7326 10.174-4.9091h0.14371v2.453c0 5.2723-3.6484 8.2314-8.5608 8.2314-5.8216 0-9.4025-3.2509-12.632-3.2509-1.965 0-4.0707 2.5989-4.0707 4.5488 0 5.7009 11.79 7.7938 15.931 7.7938 11.508 0 19.436-6.2785 19.436-18.767v-30.026c0-3.4652-2.1028-5.7754-5.0503-5.7754zm-12.985 30.568c-5.3343 0-7.9643-5.0335-7.9643-10.571 0-4.8199 2.63-10.429 7.9643-10.429 5.6166 0 8.0357 5.7513 8.0357 10.788 0 5.0364-2.5587 10.212-8.0357 10.212zm25.034-47c-2.9173 0-4.9985 2.3096-4.9985 5.7711v44.455c0 3.4645 2.0813 5.7741 4.9985 5.7741s5.0015-2.3096 5.0015-5.7741v-44.455c-0.0029028-3.4615-2.0842-5.7711-5.0015-5.7711zm25.501 16c-10.901 0-18.5 9.569-18.5 20.073 0 10.791 7.3862 19.927 18.5 19.927s18.5-9.1358 18.5-19.927c0-10.504-7.602-20.073-18.5-20.073zm-0.5 31c-5.4751 0-8-5.4673-8-10.427 0-4.963 2.4545-10.573 8-10.573s8 5.6097 8 10.573c0 4.96-2.5279 10.427-8 10.427zm52.721-30.818c-3.5073 0-6.9472 1.2198-9.6158 3.5796v-14.035c0-3.4348-2.1026-5.7267-5.0499-5.7267-2.9472 0-5.0557 2.2919-5.0557 5.7267v44.112c0 3.4378 2.1085 5.7297 5.0557 5.7297 2.8065 0 4.4194-1.5771 5.0499-4.2972 1.8974 3.1484 5.827 4.7284 9.2639 4.7284 10.176 0 16.63-9.6666 16.63-19.407 0-10.027-5.4047-20.411-16.279-20.411zm-1.6843 30.818c-5.6186 0-8.0371-5.7513-8.0371-10.788 0-5.0364 2.5612-10.212 8.0371-10.212 5.3304 0 7.9629 5.6831 7.9629 10.571-0.002971 4.8199-2.6325 10.429-7.9629 10.429zm37.463-31c-10.898 0-18.5 9.569-18.5 20.073 0 10.791 7.3862 19.927 18.5 19.927s18.5-9.1358 18.5-19.927c0-10.504-7.599-20.073-18.5-20.073zm0.5 31c-5.4721 0-8-5.4673-8-10.427 0-4.963 2.4545-10.573 8-10.573s8 5.6097 8 10.573c0 4.96-2.5279 10.427-8 10.427zm-64.5-2c-3.033 0-5.5 2.4687-5.5 5.4985 0 3.0299 2.467 5.5015 5.5 5.5015 3.03 0 5.5-2.4716 5.5-5.5015 0-3.0299-2.467-5.4985-5.5-5.4985z"/>
</g>
</g>
</g>
</svg>
